<svg width="40" height="38" xmlns="http://www.w3.org/2000/svg" xmlns:xlink="http://www.w3.org/1999/xlink" xml:space="preserve" overflow="hidden"><defs><clipPath id="clip0"><rect x="1218" y="164" width="40" height="38"/></clipPath><clipPath id="clip1"><rect x="1219" y="164" width="39" height="38"/></clipPath><clipPath id="clip2"><rect x="1219" y="164" width="39" height="38"/></clipPath><clipPath id="clip3"><rect x="1219" y="164" width="39" height="38"/></clipPath></defs><g clip-path="url(#clip0)" transform="translate(-1218 -164)"><g clip-path="url(#clip1)"><g clip-path="url(#clip2)"><g clip-path="url(#clip3)"><path d="M25.3333 11.875C25.3333 15.3728 22.4978 18.2083 19 18.2083 15.5022 18.2083 12.6667 15.3728 12.6667 11.875 12.6667 8.3772 15.5022 5.54167 19 5.54167 22.4978 5.54167 25.3333 8.3772 25.3333 11.875Z" fill="#5C523E" fill-rule="nonzero" fill-opacity="1" transform="matrix(1.02632 0 0 1 1219 164)"/><path d="M31.6667 32.4583 31.6667 26.125C31.6667 25.175 31.1917 24.225 30.4 23.5917 28.6583 22.1667 26.4417 21.2167 24.225 20.5833 22.6417 20.1083 20.9 19.7917 19 19.7917 17.2583 19.7917 15.5167 20.1083 13.775 20.5833 11.5583 21.2167 9.34167 22.325 7.6 23.5917 6.80833 24.225 6.33333 25.175 6.33333 26.125L6.33333 32.4583 31.6667 32.4583Z" fill="#5C523E" fill-rule="nonzero" fill-opacity="1" transform="matrix(1.02632 0 0 1 1219 164)"/></g></g></g></g></svg>